<svg width="118" height="96" fill="none" xmlns="http://www.w3.org/2000/svg"><path d="M91.256 2.879c-.894-1.49-3.131-1.208-3.63.456l-26.76 89.274c-.57 1.9-3.262 1.9-3.832 0L30.28 3.352c-.5-1.667-2.742-1.945-3.634-.451L14.037 24.024 1.451 44.969c-.912 1.518.455 3.386 2.178 2.975l93.455-22.28c1.962-.468 3.305 1.933 1.878 3.36l-64.38 64.37c-1.47 1.47-3.927.002-3.33-1.988L57.033 5.391c.57-1.9 3.262-1.9 3.832 0l25.78 86.004c.597 1.991-1.862 3.459-3.331 1.988L19.028 29.021c-1.425-1.427-.082-3.827 1.879-3.36l93.464 22.283c1.723.411 3.09-1.457 2.178-2.975l-12.586-20.945L91.256 2.879z" stroke="#10143E" stroke-width="2" stroke-miterlimit="10"/></svg>