<svg width="104" height="38" fill="none" xmlns="http://www.w3.org/2000/svg"><rect width="104" height="38" rx="4" fill="#FFD384"/><path d="M20 16.333l4.592 3.444a1 1 0 001.352-.142l8.723-9.969M36 19a12 12 0 11-8.894-11.591" stroke="#10143E" stroke-width="2" stroke-linecap="round"/><path d="M60.078 19.29c0 1.272-.276 2.376-.828 3.312-.54.936-1.314 1.656-2.322 2.16-.996.492-2.16.738-3.492.738H49.35V12.99h4.086c1.332 0 2.496.258 3.492.774a5.337 5.337 0 012.322 2.196c.552.948.828 2.058.828 3.33zm-6.642 4.644c1.452 0 2.568-.414 3.348-1.242.792-.828 1.188-1.962 1.188-3.402 0-1.452-.396-2.586-1.188-3.402-.78-.828-1.896-1.242-3.348-1.242h-2.034v9.288h2.034zm13.068-8.514c.948 0 1.806.21 2.574.63a4.6 4.6 0 011.818 1.8c.444.78.666 1.674.666 2.682s-.228 1.902-.684 2.682a4.783 4.783 0 01-1.872 1.818c-.78.42-1.644.63-2.592.63-.936 0-1.782-.21-2.538-.63a4.67 4.67 0 01-1.782-1.8c-.432-.78-.648-1.68-.648-2.7 0-1.008.222-1.902.666-2.682a4.6 4.6 0 011.818-1.8c.768-.42 1.626-.63 2.574-.63zm-.036 1.728a2.8 2.8 0 00-1.458.396c-.444.252-.804.636-1.08 1.152-.264.504-.396 1.116-.396 1.836s.126 1.338.378 1.854c.264.516.612.906 1.044 1.17.444.252.93.378 1.458.378.528 0 1.02-.132 1.476-.396a2.99 2.99 0 001.134-1.152c.288-.516.432-1.134.432-1.854 0-.72-.138-1.332-.414-1.836-.276-.516-.642-.9-1.098-1.152a2.896 2.896 0 00-1.476-.396zM78.81 15.42c.72 0 1.368.162 1.944.486.588.324 1.05.804 1.386 1.44.348.636.522 1.404.522 2.304v5.85h-2.034v-5.544c0-.888-.222-1.566-.666-2.034-.444-.48-1.05-.72-1.818-.72s-1.38.24-1.836.72c-.444.468-.666 1.146-.666 2.034V25.5H73.59v-9.918h2.052v1.566c.324-.564.756-.99 1.296-1.278.552-.3 1.176-.45 1.872-.45zm15.56 4.842c0 .348-.024.672-.072.972h-7.596c.048.828.324 1.488.828 1.98.516.48 1.158.72 1.926.72 1.116 0 1.902-.462 2.358-1.386h2.214a4.498 4.498 0 01-1.638 2.25c-.792.576-1.77.864-2.934.864-.948 0-1.788-.21-2.52-.63a4.62 4.62 0 01-1.728-1.8c-.408-.78-.612-1.68-.612-2.7 0-1.02.204-1.914.612-2.682a4.428 4.428 0 011.746-1.8c.756-.42 1.62-.63 2.592-.63.936 0 1.77.204 2.502.612a4.34 4.34 0 011.71 1.71c.408.732.612 1.572.612 2.52zm-2.142-.432c-.012-.816-.282-1.464-.81-1.944-.528-.492-1.182-.738-1.962-.738-.732 0-1.356.246-1.872.738-.504.48-.792 1.128-.864 1.944h5.508z" fill="#10143E"/></svg>