<svg width="122" height="122" viewBox="0 0 122 122" fill="none" xmlns="http://www.w3.org/2000/svg">
<path fill-rule="evenodd" clip-rule="evenodd" d="M2 60.6471C2 28.2572 28.2572 2 60.6471 2C93.0369 2 119.294 28.2572 119.294 60.6471C119.294 93.0369 93.0369 119.294 60.6471 119.294C28.2572 119.294 2 93.0369 2 60.6471ZM60.6471 0C27.1526 0 0 27.1526 0 60.6471C0 94.1415 27.1526 121.294 60.6471 121.294C94.1415 121.294 121.294 94.1415 121.294 60.6471C121.294 27.1526 94.1415 0 60.6471 0ZM60.3212 17.0634C60.3628 15.8435 60.4795 14.9613 60.6469 14.4027C60.8142 14.9613 60.9309 15.8435 60.9726 17.0634C61.0368 18.9436 60.9192 21.458 60.6469 24.4595C60.3745 21.458 60.257 18.9436 60.3212 17.0634ZM62.321 27.7553C62.1341 29.4236 61.9111 31.1954 61.6563 33.0506C62.2029 36.9997 62.8933 41.328 63.687 45.8394C66.2586 41.794 68.6516 37.8931 70.7381 34.3265C71.1765 32.728 71.6112 31.2021 72.0391 29.7633C73.3025 25.5154 74.5181 21.9898 75.6093 19.5894C76.15 18.4001 76.6893 17.4205 77.2254 16.7645C77.4911 16.4393 77.8075 16.1288 78.182 15.9337C78.5869 15.7227 79.0981 15.6335 79.6134 15.8576C80.1274 16.081 80.4101 16.514 80.536 16.9478C80.6534 17.352 80.6508 17.7952 80.6024 18.215C80.5049 19.0616 80.1793 20.1361 79.7045 21.359C78.7463 23.8263 77.0721 27.1661 74.9166 31.0438C74.1968 32.3389 73.4212 33.6976 72.5977 35.1084C71.5438 38.9665 70.4675 43.2487 69.4116 47.7516C73.1443 45.0829 76.6685 42.48 79.8161 40.0566C80.8378 38.7317 81.8277 37.4734 82.7775 36.2942C85.559 32.8407 88.0199 30.0362 89.9372 28.2238C90.8872 27.3257 91.755 26.6214 92.4962 26.2141C92.8632 26.0124 93.2711 25.8426 93.6888 25.8002C94.1399 25.7545 94.65 25.8587 95.0457 26.2619C95.4403 26.6642 95.535 27.1746 95.4857 27.6212C95.4398 28.0375 95.2691 28.4448 95.0655 28.8134C94.6546 29.5572 93.9478 30.4276 93.0467 31.3806C91.2288 33.3034 88.4209 35.7677 84.9654 38.5513C83.7977 39.492 82.5526 40.4717 81.2423 41.4825C77.2955 46.6113 72.8717 52.7386 68.4622 59.1387C68.6445 59.2589 68.8267 59.3789 69.0088 59.4987C76.7373 54.4442 84.2706 49.8051 90.3791 46.4133C94.2517 44.263 97.5855 42.5949 100.046 41.6443C101.265 41.1733 102.337 40.8514 103.181 40.7588C103.6 40.7129 104.044 40.7134 104.448 40.8365C104.885 40.9694 105.311 41.262 105.526 41.7789C107.953 47.6376 109.381 53.9292 109.381 60.6473C109.381 67.3554 108.039 73.7335 105.521 79.609C105.301 80.122 104.873 80.4102 104.437 80.541C104.032 80.6627 103.588 80.6632 103.167 80.617C102.318 80.5239 101.242 80.2013 100.019 79.7292C97.551 78.7765 94.2106 77.1054 90.3328 74.9518C84.2322 71.5639 76.7174 66.9343 69.0085 61.8905C68.9042 61.9591 68.7999 62.0278 68.6955 62.0965C68.631 62.1389 68.5666 62.1814 68.5021 62.2239C72.8897 68.5904 77.2904 74.6851 81.2202 79.7917C82.556 80.8222 83.8241 81.8206 85.0119 82.7781C88.4622 85.5597 91.2638 88.0207 93.0741 89.938C93.9712 90.888 94.6746 91.756 95.0813 92.4972C95.2827 92.8643 95.4521 93.2722 95.4942 93.6899C95.5396 94.1409 95.4352 94.6506 95.0322 95.0461C94.6303 95.4404 94.1204 95.5354 93.6737 95.4864C93.2576 95.4408 92.8503 95.2703 92.482 95.067C91.7386 94.6567 90.8689 93.9506 89.9169 93.0507C87.9962 91.2349 85.5347 88.4302 82.7544 84.9786C81.8047 83.7997 80.8152 82.5418 79.794 81.2176C76.6356 78.7857 73.0991 76.1732 69.3539 73.4951C70.4053 77.9863 71.478 82.2603 72.5297 86.1157C73.3962 87.5981 74.2103 89.0239 74.963 90.3795C77.1133 94.2521 78.7814 97.5859 79.732 100.046C80.203 101.265 80.5249 102.337 80.6175 103.182C80.6634 103.6 80.6629 104.044 80.5398 104.449C80.4069 104.885 80.1143 105.312 79.5974 105.526C79.0808 105.74 78.573 105.645 78.1711 105.434C77.7974 105.237 77.4802 104.926 77.2124 104.599C76.6725 103.94 76.1299 102.957 75.5862 101.765C74.4891 99.3583 73.2699 95.829 72.0045 91.579C71.5655 90.1046 71.1197 88.539 70.6702 86.8977C68.6048 83.3719 66.2428 79.5236 63.7069 75.5348C62.9042 80.0866 62.2063 84.452 61.6553 88.4297C61.9054 90.247 62.1247 91.9837 62.3094 93.6207C62.8057 98.0203 63.0561 101.741 62.9681 104.381C62.9245 105.689 62.7963 106.807 62.5374 107.627C62.4086 108.036 62.2244 108.446 61.9401 108.771C61.6336 109.121 61.1949 109.381 60.6469 109.381C60.0985 109.381 59.6597 109.12 59.3533 108.77C59.0691 108.446 58.8851 108.035 58.7563 107.626C58.4974 106.805 58.3693 105.686 58.3257 104.377C58.2377 101.735 58.4881 98.012 58.9843 93.6092C59.1685 91.9756 59.3871 90.2429 59.6363 88.4299C59.0853 84.4567 58.3878 80.0967 57.5854 75.5506C55.0478 79.5414 52.6844 83.3912 50.6181 86.9179C50.1704 88.5519 49.7264 90.1107 49.2892 91.579C48.0238 95.829 46.8047 99.3583 45.7076 101.765C45.1639 102.957 44.6213 103.94 44.0814 104.599C43.8136 104.926 43.4964 105.237 43.1227 105.434C42.7208 105.645 42.2129 105.74 41.6963 105.526C41.179 105.312 40.8865 104.885 40.7539 104.448C40.6311 104.043 40.631 103.599 40.6772 103.18C40.7705 102.335 41.0932 101.262 41.5652 100.042C42.5179 97.5801 44.1889 94.2435 46.3424 90.3677C47.0903 89.0217 47.8986 87.6067 48.7585 86.1356C49.8037 82.3055 50.8696 78.0617 51.9149 73.6017C48.1667 76.281 44.6282 78.8942 41.4692 81.3265C40.4464 82.6534 39.4555 83.9134 38.5048 85.094C35.7264 88.5443 33.2684 91.3459 31.3532 93.1563C30.4042 94.0534 29.5371 94.7569 28.7964 95.1637C28.4296 95.3651 28.0217 95.5346 27.6041 95.5767C27.153 95.6222 26.6434 95.5176 26.2481 95.1147C25.8534 94.7125 25.7587 94.2021 25.808 93.7555C25.8539 93.3392 26.0247 92.9319 26.2283 92.5633C26.6391 91.8195 27.346 90.9491 28.247 89.9961C30.065 88.0733 32.8729 85.609 36.3284 82.8254C37.4935 81.8868 38.7357 80.9092 40.0428 79.9008C44.0017 74.7545 48.441 68.6022 52.8644 62.1775C52.692 62.0639 52.5198 61.9504 52.3476 61.8371C44.5972 66.9074 37.0397 71.5625 30.9147 74.9634C27.0421 77.1137 23.7082 78.7818 21.2479 79.7324C20.0288 80.2034 18.9569 80.5253 18.1126 80.6179C17.6939 80.6638 17.25 80.6633 16.8454 80.5402C16.4087 80.4073 15.9824 80.1147 15.7682 79.5978C13.3403 73.7373 11.9128 67.3636 11.9128 60.6473C11.9128 53.9391 13.2549 47.5611 15.7729 41.6855C15.9928 41.1726 16.4206 40.8844 16.8564 40.7535C17.2615 40.6318 17.7061 40.6314 18.1271 40.6776C18.9755 40.7707 20.0514 41.0932 21.2745 41.5654C23.7427 42.5181 27.0831 44.1891 30.961 46.3427C37.0781 49.7399 44.617 54.3853 52.3478 59.445C52.4456 59.3807 52.5434 59.3163 52.6412 59.2519C52.705 59.2099 52.7689 59.1678 52.8328 59.1257C48.4332 52.74 44.0189 46.6264 40.0781 41.5064C38.7407 40.4746 37.471 39.475 36.2819 38.5164C32.8316 35.7348 30.03 33.2739 28.2196 31.3565C27.3226 30.4065 26.6191 29.5386 26.2124 28.7973C26.011 28.4303 25.8416 28.0223 25.7996 27.6046C25.7541 27.1537 25.8585 26.6439 26.2616 26.2485C26.6638 25.8538 27.1742 25.7591 27.6208 25.8084C28.0371 25.8543 28.4444 26.0251 28.813 26.2287C29.5568 26.6395 30.4272 27.3464 31.3802 28.2474C33.303 30.0654 35.7673 32.8733 38.5509 36.3288C39.4984 37.505 40.4856 38.7597 41.5042 40.0804C44.643 42.4971 48.1549 45.0919 51.874 47.7523C50.8072 43.2057 49.7197 38.884 48.6557 34.9969C47.8429 33.6047 47.077 32.2636 46.3658 30.9851C44.2136 27.1164 42.5422 23.7863 41.5862 21.3291C41.1124 20.1115 40.7874 19.0417 40.6904 18.1997C40.6423 17.7824 40.6398 17.34 40.7585 16.9365C40.8865 16.5017 41.1738 16.0704 41.6916 15.8528C42.21 15.6349 42.7195 15.7322 43.1195 15.945C43.4908 16.1426 43.8054 16.454 44.0705 16.7807C44.6054 17.4398 45.1442 18.4216 45.6848 19.6138C46.7758 22.0195 47.9912 25.5482 49.2547 29.7981C49.6694 31.1929 50.0904 32.6694 50.515 34.2145C52.6129 37.7999 55.0228 41.7263 57.6138 45.7995C58.4045 41.3025 59.0925 36.9881 59.6374 33.0506C59.3827 31.1954 59.1597 29.4236 58.9727 27.7553C58.4796 23.3556 58.2322 19.6352 58.3223 16.9952C58.367 15.6873 58.4961 14.569 58.7557 13.7486C58.8848 13.3404 59.0693 12.9299 59.3537 12.6055C59.6603 12.256 60.099 11.9953 60.6469 11.9953C61.1948 11.9953 61.6335 12.256 61.94 12.6055C62.2245 12.9299 62.4089 13.3404 62.5381 13.7486C62.7977 14.569 62.9268 15.6873 62.9714 16.9952C63.0616 19.6352 62.8141 23.3556 62.321 27.7553ZM59.203 48.281C59.7263 45.3843 60.2111 42.5469 60.6469 39.8186C61.0847 42.5597 61.572 45.411 62.0982 48.3219C61.6249 49.0565 61.1467 49.7946 60.6643 50.535C60.1726 49.7809 59.6852 49.0292 59.203 48.281ZM61.8605 52.3614C62.1165 51.9699 62.3715 51.5789 62.6253 51.1885C62.6984 51.58 62.7723 51.9723 62.8467 52.3652C62.6216 52.5207 62.3962 52.6763 62.1704 52.8319L61.8605 52.3614ZM58.6762 51.1471C58.9392 51.5514 59.2034 51.9564 59.4687 52.3619C59.3607 52.5263 59.2524 52.6907 59.144 52.8552C58.9108 52.6945 58.678 52.5338 58.4456 52.373C58.5231 51.9637 58.6 51.555 58.6762 51.1471ZM58.0343 54.5194L58.0403 54.5236L58.0307 54.538L58.0343 54.5194ZM56.2374 53.2756C56.0747 54.1228 55.9093 54.9725 55.7415 55.8237C55.4938 54.6781 55.2433 53.538 54.9906 52.4062C55.4047 52.6959 55.8203 52.9857 56.2374 53.2756ZM45.8457 45.8489C47.9908 47.4293 50.2393 49.0518 52.5535 50.6909C53.0498 52.8686 53.5395 55.0862 54.018 57.3218C51.2558 53.3256 48.4918 49.4422 45.8457 45.8489ZM45.8054 75.5624C48.4815 71.927 51.279 67.9938 54.0738 63.9468C53.5903 66.2119 53.0952 68.4589 52.5931 70.665C50.2504 72.323 47.9748 73.9643 45.8054 75.5624ZM52.4127 80.049C53.0703 77.4188 53.7268 74.6723 54.3724 71.8566C55.1167 71.3315 55.8676 70.8048 56.6238 70.2775C56.7733 71.0725 56.9202 71.8643 57.0643 72.6519C55.4441 75.1749 53.8836 77.6554 52.4127 80.049ZM55.0291 68.9516C55.4228 68.6765 55.8179 68.4011 56.2143 68.1256C56.0592 67.3202 55.9018 66.5125 55.7421 65.7034C55.5068 66.792 55.269 67.8756 55.0291 68.9516ZM58.6452 70.2056C58.5718 69.8138 58.4977 69.4213 58.4231 69.0281C58.6691 68.858 58.9156 68.6879 59.1625 68.5178L59.4557 68.9631C59.1843 69.3779 58.9141 69.7921 58.6452 70.2056ZM58.011 66.8825L58.0586 66.8496L57.9822 66.7346L58.011 66.8825ZM59.1734 73.0701C59.6612 72.3131 60.1541 71.5526 60.6515 70.7896C61.1452 71.5471 61.6346 72.3022 62.1188 73.0537C61.5841 76.0053 61.0892 78.8955 60.6453 81.6719C60.2018 78.9007 59.7075 76.016 59.1734 73.0701ZM61.8476 68.9632C62.1152 69.3723 62.3816 69.7808 62.6467 70.1886C62.7243 69.7747 62.8025 69.36 62.8814 68.9445C62.6477 68.7829 62.4137 68.6212 62.1792 68.4596C62.0685 68.6275 61.9579 68.7954 61.8476 68.9632ZM68.8759 80.0282C67.406 77.6358 65.8467 75.1568 64.2278 72.6355C64.3758 71.8259 64.5268 71.0118 64.6806 70.1945C65.4249 70.7139 66.164 71.2325 66.8969 71.7497C67.5486 74.5953 68.2116 77.371 68.8759 80.0282ZM66.2408 68.8447C65.8586 68.5774 65.475 68.31 65.0901 68.0424C65.2408 67.26 65.3937 66.4754 65.5487 65.6896C65.7772 66.7468 66.008 67.7993 66.2408 68.8447ZM68.6764 70.5584C68.1763 68.3586 67.6831 66.1186 67.2016 63.8607C69.9903 67.8975 72.7821 71.8215 75.4537 75.4498C73.2872 73.8535 71.0151 72.2143 68.6764 70.5584ZM75.477 45.8227C72.8175 49.4342 70.0382 53.3395 67.261 57.358C67.7418 55.1095 68.2339 52.8791 68.7328 50.689C71.06 49.0416 73.3209 47.4108 75.477 45.8227ZM65.0549 53.2681C65.4701 52.9796 65.884 52.6912 66.2962 52.403C66.0447 53.5302 65.7954 54.6656 65.5489 55.8064C65.3817 54.9585 65.217 54.112 65.0549 53.2681ZM64.6464 51.1157C65.4214 50.5752 66.191 50.0354 66.9536 49.4973C67.6071 46.6491 68.2716 43.8716 68.9369 41.2139C67.443 43.6476 65.8558 46.172 64.2069 48.7404C64.3507 49.5283 64.4972 50.3204 64.6464 51.1157ZM63.2936 66.7987L63.2834 66.7916L63.2997 66.7672L63.2936 66.7987ZM63.6175 58.6079C63.8321 58.9263 64.047 59.2445 64.2622 59.5624L64.3297 59.8925C64.388 60.1778 64.4466 60.4631 64.5054 60.7483C64.4569 60.9832 64.4087 61.2181 64.3605 61.453L64.3182 61.6597C64.0843 62.0051 63.8507 62.3509 63.6175 62.6969C63.4643 62.9242 63.3113 63.1515 63.1585 63.379L62.7274 63.6691C62.0553 64.122 61.3841 64.5764 60.7146 65.0318C60.0208 64.5593 59.325 64.0878 58.6283 63.618C58.4321 63.4857 58.2358 63.3535 58.0394 63.2215C57.9287 63.0569 57.818 62.8923 57.7072 62.7278C57.4592 62.3599 57.2109 61.9922 56.9621 61.625L56.9332 61.4837C56.884 61.2437 56.8347 61.0038 56.7852 60.7639C56.845 60.4735 56.9047 60.183 56.9641 59.8925L57.0147 59.6446C57.2253 59.3335 57.4356 59.0221 57.6455 58.7105C57.8027 58.4772 57.9598 58.2438 58.1166 58.0103L58.5663 57.7076C59.2586 57.2411 59.95 56.773 60.6395 56.3038C61.3133 56.7626 61.9889 57.2203 62.6655 57.6765C62.8636 57.8101 63.0618 57.9436 63.26 58.0769C63.3791 58.2539 63.4982 58.431 63.6175 58.6079ZM56.646 51.123C55.8688 50.5807 55.0973 50.0392 54.3326 49.4994C53.6699 46.6129 52.996 43.7992 52.3215 41.1091C53.8279 43.5624 55.4297 46.1088 57.0942 48.7C56.9477 49.5036 56.7982 50.3116 56.646 51.123ZM77.8401 20.635C77.2547 22.1424 76.3726 24.0274 75.2447 26.2108C76.0226 23.8572 76.7583 21.8946 77.43 20.4171C77.8571 19.4775 78.239 18.7783 78.5657 18.3081C78.4578 18.8791 78.2208 19.6545 77.8401 20.635ZM91.5935 30.0066C90.5008 31.1622 89.0059 32.5489 87.1817 34.1149C88.7578 32.2771 90.1518 30.773 91.3111 29.6771C92.0355 28.9923 92.6364 28.4978 93.1095 28.1815C92.7904 28.661 92.289 29.2709 91.5935 30.0066ZM91.3038 73.2034C85.4488 69.9518 78.2581 65.5337 70.8353 60.6948C78.2777 55.845 85.4868 51.4174 91.35 48.1618C95.2015 46.0232 98.4384 44.4094 100.767 43.5099C101.942 43.0558 102.819 42.8105 103.399 42.7469C103.564 42.7288 103.68 42.7285 103.756 42.7337C106.046 48.3226 107.381 54.2918 107.381 60.6473C107.381 67.016 106.121 73.0645 103.759 78.6415C103.681 78.6476 103.56 78.6481 103.385 78.6289C102.8 78.5647 101.918 78.3184 100.739 77.8633C98.4036 76.9617 95.1604 75.3452 91.3038 73.2034ZM91.2909 91.5973C90.1295 90.4994 88.7345 88.9945 87.1584 87.1571C89.0074 88.7433 90.5197 90.1458 91.6199 91.3111C92.3054 92.037 92.7998 92.6388 93.1156 93.1123C92.6364 92.7938 92.0266 92.2928 91.2909 91.5973ZM77.406 100.935C76.7131 99.4153 75.9537 97.3856 75.1511 94.9475C76.3392 97.2367 77.2633 99.2061 77.8664 100.767C78.2491 101.757 78.4834 102.536 78.5858 103.104C78.2479 102.63 77.851 101.911 77.406 100.935ZM60.3246 104.311C60.2626 102.451 60.3787 99.9714 60.6465 97.0142C60.9149 99.9732 61.0312 102.454 60.9692 104.314C60.9286 105.531 60.8132 106.412 60.647 106.97C60.4807 106.411 60.3652 105.529 60.3246 104.311ZM43.4305 100.764C44.0324 99.2085 44.9529 97.2476 46.1356 94.969C45.3356 97.3975 44.5786 99.4197 43.8878 100.935C43.4433 101.91 43.0469 102.628 42.7093 103.102C42.8123 102.533 43.0473 101.755 43.4305 100.764ZM29.7003 91.3701C30.7921 90.2154 32.2855 88.8301 34.1076 87.2656C32.5318 89.1035 31.1381 90.6075 29.9793 91.7029C29.256 92.3866 28.6561 92.8802 28.1837 93.196C28.5028 92.7163 29.0044 92.1061 29.7003 91.3701ZM29.99 48.0912C35.8615 51.352 43.0764 55.7858 50.5215 60.6409C43.0568 65.5067 35.8235 69.9501 29.9438 73.2149C26.0922 75.3535 22.8553 76.9673 20.5271 77.8668C19.3518 78.3209 18.475 78.5662 17.8946 78.6298C17.7296 78.6479 17.614 78.6482 17.5379 78.643C15.2483 73.0539 13.9128 67.0044 13.9128 60.6473C13.9128 54.2785 15.1726 48.23 17.5347 42.653C17.6126 42.6469 17.7336 42.6464 17.9089 42.6656C18.4942 42.7299 19.3755 42.9761 20.5543 43.4312C22.8901 44.3328 26.1333 45.9494 29.99 48.0912ZM30.0062 29.7007C31.1675 30.7987 32.562 32.3029 34.1375 34.1392C32.2876 32.5523 30.7745 31.1492 29.6738 29.9835C28.9888 29.258 28.4945 28.6565 28.1787 28.1831C28.6587 28.5021 29.2694 29.004 30.0062 29.7007ZM43.8634 20.4398C44.5179 21.883 45.2331 23.7857 45.9889 26.061C44.8875 23.9261 44.0251 22.0819 43.45 20.6039C43.08 19.6527 42.8464 18.8965 42.7354 18.3344C43.061 18.8082 43.4401 19.5065 43.8634 20.4398Z" fill="#10143E"/>
</svg>
