<svg width="122" height="122" fill="none" xmlns="http://www.w3.org/2000/svg"><path fill-rule="evenodd" clip-rule="evenodd" d="M2 60.647C2 28.257 28.257 2 60.647 2s58.647 26.257 58.647 58.647-26.257 58.647-58.647 58.647S2 93.037 2 60.647zM60.647 0C27.153 0 0 27.153 0 60.647s27.153 60.647 60.647 60.647 60.647-27.153 60.647-60.647S94.141 0 60.647 0zm-.326 17.063c.042-1.22.159-2.102.326-2.66.167.558.284 1.44.326 2.66.064 1.88-.054 4.395-.326 7.396-.273-3.001-.39-5.515-.326-7.396zm2 10.692a214.84 214.84 0 01-.665 5.296 358.33 358.33 0 002.031 12.788 370.866 370.866 0 007.051-11.512c.439-1.599.873-3.125 1.301-4.564 1.263-4.248 2.48-7.773 3.57-10.174.541-1.189 1.08-2.168 1.616-2.824.266-.326.583-.636.957-.831.405-.211.916-.3 1.431-.076.514.223.797.656.923 1.09.117.404.115.847.066 1.267-.097.847-.423 1.921-.898 3.144-.958 2.467-2.632 5.807-4.787 9.685a222.835 222.835 0 01-2.32 4.064 363.685 363.685 0 00-3.185 12.644 369.989 369.989 0 0010.404-7.695 227.188 227.188 0 012.962-3.763c2.781-3.453 5.242-6.258 7.16-8.07.95-.898 1.817-1.603 2.558-2.01.367-.202.775-.371 1.193-.414.45-.046.961.059 1.357.462.394.402.489.913.44 1.36-.046.416-.217.823-.42 1.191-.411.744-1.118 1.615-2.02 2.568-1.817 1.922-4.625 4.387-8.08 7.17-1.168.941-2.413 1.92-3.724 2.931-3.947 5.13-8.37 11.257-12.78 17.657l.547.36c7.728-5.055 15.262-9.694 21.37-13.086 3.873-2.15 7.206-3.818 9.667-4.769 1.219-.47 2.291-.793 3.135-.885.419-.046.863-.046 1.267.078.437.132.863.425 1.078.942 2.427 5.859 3.855 12.15 3.855 18.868 0 6.708-1.342 13.087-3.86 18.962-.22.513-.648.801-1.084.932-.405.122-.849.122-1.27.076-.849-.093-1.925-.416-3.148-.888-2.468-.953-5.808-2.624-9.686-4.777-6.1-3.388-13.616-8.018-21.325-13.061l-.313.206-.193.127C72.89 68.59 77.29 74.685 81.22 79.792a226.744 226.744 0 013.792 2.986c3.45 2.782 6.252 5.243 8.062 7.16.897.95 1.6 1.818 2.007 2.56.202.366.371.774.413 1.192.046.45-.059.96-.462 1.356-.402.394-.912.49-1.358.44-.416-.045-.824-.216-1.192-.419-.743-.41-1.613-1.116-2.565-2.016-1.92-1.816-4.382-4.62-7.163-8.072-.95-1.18-1.939-2.437-2.96-3.761a371.746 371.746 0 00-10.44-7.723 362.756 362.756 0 003.176 12.62 223.09 223.09 0 012.433 4.264c2.15 3.873 3.818 7.207 4.769 9.667.471 1.219.793 2.291.886 3.136.045.418.045.862-.078 1.267-.133.436-.426.863-.943 1.077-.516.214-1.024.119-1.426-.092-.374-.197-.69-.508-.959-.835-.54-.659-1.082-1.642-1.626-2.834-1.097-2.407-2.316-5.936-3.582-10.186a221.41 221.41 0 01-1.334-4.681 371.305 371.305 0 00-6.963-11.363c-.803 4.552-1.5 8.917-2.052 12.895.25 1.817.47 3.554.654 5.19.497 4.4.747 8.121.66 10.761-.044 1.308-.173 2.426-.432 3.246-.128.409-.313.819-.597 1.144-.306.35-.745.61-1.293.61-.548 0-.987-.261-1.294-.611-.284-.324-.468-.735-.597-1.144-.259-.821-.387-1.94-.43-3.249-.088-2.642.162-6.365.658-10.768.184-1.633.403-3.366.652-5.18a358.015 358.015 0 00-2.05-12.878 371.503 371.503 0 00-6.968 11.367 221.485 221.485 0 01-1.329 4.661c-1.265 4.25-2.484 7.78-3.581 10.186-.544 1.192-1.087 2.175-1.627 2.834-.267.327-.585.638-.958.835-.402.211-.91.306-1.427.092s-.81-.641-.942-1.078c-.123-.405-.123-.849-.077-1.268.093-.845.416-1.918.888-3.138.953-2.462 2.624-5.799 4.777-9.674a224.484 224.484 0 012.416-4.232 361.82 361.82 0 003.157-12.534 370.33 370.33 0 00-10.446 7.724 226.481 226.481 0 01-2.964 3.768c-2.779 3.45-5.237 6.252-7.152 8.062-.949.897-1.816 1.6-2.557 2.008-.366.201-.774.37-1.192.413-.451.045-.96-.06-1.356-.462-.395-.402-.49-.913-.44-1.36.046-.416.217-.823.42-1.192.411-.743 1.118-1.614 2.019-2.567 1.818-1.923 4.626-4.387 8.081-7.17a225.602 225.602 0 013.715-2.925c3.959-5.147 8.398-11.299 12.821-17.723-.172-.114-.344-.228-.516-.34-7.75 5.07-15.308 9.724-21.433 13.125-3.873 2.15-7.207 3.819-9.667 4.77-1.22.47-2.291.792-3.135.885-.42.046-.863.045-1.268-.078-.436-.133-.863-.425-1.077-.942-2.428-5.86-3.855-12.234-3.855-18.95 0-6.709 1.342-13.087 3.86-18.963.22-.512.648-.8 1.083-.931.405-.122.85-.123 1.271-.076.849.093 1.924.415 3.148.887 2.468.953 5.808 2.624 9.686 4.778 6.117 3.397 13.656 8.042 21.387 13.102l.293-.193.192-.126c-4.4-6.386-8.814-12.5-12.755-17.62a227.087 227.087 0 01-3.796-2.99c-3.45-2.781-6.252-5.242-8.062-7.16-.897-.95-1.6-1.817-2.008-2.559-.201-.367-.37-.775-.412-1.192-.046-.451.058-.961.462-1.357.402-.394.912-.489 1.359-.44.416.046.823.217 1.192.42.744.412 1.614 1.118 2.567 2.02 1.923 1.817 4.387 4.625 7.17 8.08a227.043 227.043 0 012.954 3.752 371.238 371.238 0 0010.37 7.672 363.204 363.204 0 00-3.218-12.755 223.025 223.025 0 01-2.29-4.012c-2.152-3.869-3.824-7.199-4.78-9.656-.474-1.218-.799-2.287-.896-3.13-.048-.417-.05-.859.069-1.263.127-.434.415-.866.933-1.083.518-.218 1.027-.12 1.428.092.37.198.685.509.95.836.535.659 1.074 1.64 1.615 2.833 1.09 2.405 2.306 5.934 3.57 10.184.414 1.395.835 2.871 1.26 4.417a371.144 371.144 0 007.099 11.584c.79-4.496 1.479-8.81 2.023-12.748a216.139 216.139 0 01-.664-5.296c-.493-4.4-.74-8.12-.65-10.76.044-1.308.173-2.426.433-3.246.129-.409.313-.82.598-1.144.306-.349.745-.61 1.293-.61.548 0 .986.261 1.293.61.285.325.469.735.598 1.144.26.82.389 1.938.433 3.246.09 2.64-.157 6.36-.65 10.76zm-3.118 20.526a423.967 423.967 0 001.444-8.462c.438 2.74.925 5.592 1.451 8.503a451.89 451.89 0 01-1.434 2.213c-.491-.754-.979-1.506-1.461-2.254zm2.657 4.08c.257-.391.511-.782.765-1.172l.222 1.176-.677.467-.31-.47zm-3.184-1.214c.263.404.527.81.793 1.215l-.325.493-.698-.482.23-1.226zm-.642 3.372l.006.005-.01.014.004-.019zm-1.797-1.243a529.53 529.53 0 01-.495 2.548 520.207 520.207 0 00-.751-3.418l1.246.87zm-10.391-7.427a443.935 443.935 0 006.708 4.842c.496 2.178.985 4.395 1.464 6.63a474.98 474.98 0 00-8.172-11.472zm-.04 29.713a477.044 477.044 0 008.268-11.615 511.137 511.137 0 01-1.48 6.718 441.983 441.983 0 00-6.789 4.897zm6.607 4.487c.657-2.63 1.314-5.377 1.96-8.192.744-.525 1.495-1.052 2.25-1.58.15.796.297 1.587.441 2.375a442.503 442.503 0 00-4.651 7.397zm2.616-11.097l1.185-.826a468.66 468.66 0 00-.472-2.423 512.389 512.389 0 01-.713 3.249zm3.616 1.254l-.222-1.178.74-.51.293.445c-.272.415-.542.83-.81 1.243zm-.634-3.324l.048-.032-.077-.115.029.147zm1.162 6.188c.488-.757.981-1.517 1.478-2.28.494.757.984 1.512 1.468 2.264a424.771 424.771 0 00-1.474 8.618 424.154 424.154 0 00-1.472-8.602zm2.675-4.107l.799 1.226.234-1.244c-.233-.162-.467-.324-.702-.485l-.331.503zm7.028 11.065a441.742 441.742 0 00-4.648-7.393c.148-.81.299-1.623.453-2.44.744.519 1.483 1.038 2.216 1.555a430.705 430.705 0 001.979 8.278zM66.24 68.845c-.382-.268-.766-.535-1.15-.803.15-.782.303-1.567.458-2.352.228 1.057.459 2.11.692 3.155zm2.435 1.713c-.5-2.2-.993-4.44-1.474-6.697a476.34 476.34 0 008.252 11.589 443.874 443.874 0 00-6.778-4.892zm6.801-24.735a476.506 476.506 0 00-8.216 11.535c.48-2.248.973-4.479 1.472-6.669a443.03 443.03 0 006.744-4.866zm-10.422 7.445c.415-.288.829-.577 1.241-.865-.251 1.127-.5 2.263-.747 3.403-.167-.847-.332-1.694-.494-2.538zm-.409-2.152c.775-.54 1.545-1.08 2.308-1.619a433.021 433.021 0 011.983-8.283 442.118 442.118 0 01-4.73 7.526c.144.788.29 1.58.44 2.376zm-1.352 15.683l-.01-.007.016-.025-.006.032zm.324-8.191l.644.954.068.33.175.856-.144.705-.043.207a570.198 570.198 0 00-1.16 1.719l-.43.29c-.673.453-1.344.907-2.013 1.363a548.206 548.206 0 00-2.676-1.81l-.332-.494-.745-1.103-.029-.141-.148-.72.18-.872.05-.247a492.46 492.46 0 001.102-1.635l.45-.302a625.46 625.46 0 002.072-1.404 536.21 536.21 0 002.621 1.773l.358.53zm-6.972-7.485a518.575 518.575 0 01-2.313-1.624c-.663-2.886-1.337-5.7-2.011-8.39 1.506 2.453 3.108 5 4.772 7.591a483.48 483.48 0 01-.448 2.423zM77.84 20.635c-.585 1.507-1.467 3.392-2.595 5.576.778-2.354 1.513-4.316 2.185-5.794.427-.94.809-1.639 1.136-2.109-.108.571-.345 1.346-.726 2.327zm13.754 9.372c-1.093 1.155-2.588 2.542-4.412 4.108 1.576-1.838 2.97-3.342 4.13-4.438.724-.685 1.324-1.18 1.797-1.495-.319.479-.82 1.089-1.515 1.825zm-.29 43.196c-5.855-3.251-13.046-7.67-20.469-12.508 7.443-4.85 14.652-9.278 20.515-12.533 3.852-2.139 7.088-3.753 9.417-4.652 1.175-.454 2.052-.7 2.632-.763.165-.018.281-.019.357-.013 2.29 5.589 3.625 11.558 3.625 17.913 0 6.369-1.26 12.417-3.622 17.994a2.043 2.043 0 01-.374-.012c-.585-.064-1.467-.31-2.646-.766-2.335-.901-5.579-2.518-9.435-4.66zm-.013 18.394c-1.162-1.098-2.556-2.602-4.133-4.44 1.85 1.586 3.362 2.989 4.462 4.154.685.726 1.18 1.328 1.496 1.801-.48-.318-1.09-.82-1.825-1.515zm-13.885 9.338c-.693-1.52-1.452-3.55-2.255-5.987 1.188 2.289 2.112 4.258 2.715 5.819.383.99.617 1.769.72 2.337-.338-.474-.735-1.193-1.18-2.169zm-17.081 3.376c-.062-1.86.054-4.34.322-7.297.268 2.96.384 5.44.322 7.3-.04 1.217-.156 2.098-.322 2.656-.166-.559-.282-1.441-.322-2.659zm-16.895-3.547c.602-1.555 1.523-3.516 2.706-5.795-.8 2.428-1.557 4.45-2.248 5.966-.445.975-.841 1.693-1.179 2.167.103-.569.338-1.347.721-2.338zM29.7 91.37c1.092-1.155 2.585-2.54 4.408-4.104-1.576 1.837-2.97 3.341-4.129 4.437-.723.684-1.323 1.177-1.795 1.493.319-.48.82-1.09 1.516-1.826zm.29-43.279c5.872 3.261 13.086 7.695 20.532 12.55-7.465 4.866-14.698 9.31-20.578 12.574-3.852 2.138-7.089 3.752-9.417 4.652-1.175.454-2.052.7-2.632.763a2.082 2.082 0 01-.357.013c-2.29-5.59-3.625-11.639-3.625-17.996 0-6.368 1.26-12.417 3.622-17.994a1.99 1.99 0 01.374.013c.585.064 1.466.31 2.645.765 2.336.902 5.58 2.518 9.436 4.66zm.016-18.39c1.162 1.098 2.556 2.602 4.132 4.438-1.85-1.587-3.363-2.99-4.464-4.156-.685-.725-1.18-1.326-1.495-1.8.48.32 1.09.821 1.827 1.518zm13.857-9.261c.655 1.443 1.37 3.346 2.126 5.621-1.101-2.135-1.964-3.98-2.539-5.457-.37-.951-.604-1.707-.715-2.27.326.474.705 1.172 1.128 2.106z" fill="#10143E"/></svg>