<svg width="122" height="121" viewBox="0 0 122 121" fill="none" xmlns="http://www.w3.org/2000/svg">
<path d="M14.086 18.85C13.3253 17.5167 14.2881 15.8588 15.8232 15.8588L106.185 15.8588C107.719 15.8588 108.682 17.513 107.925 18.8463L62.8543 98.2268C62.0887 99.5752 60.1464 99.5773 59.3779 98.2305L14.086 18.85Z" stroke="#10143E" stroke-width="2" stroke-miterlimit="10"/>
<path d="M2.29057 47.3612C1.58486 46.4779 1.75115 45.1856 2.65751 44.5097L59.7908 1.90176C60.5066 1.36799 61.4894 1.37329 62.1994 1.91477L119.366 45.5164C120.261 46.1992 120.417 47.486 119.71 48.3623L62.6835 119.061C61.8805 120.056 60.3624 120.053 59.5642 119.053L2.29057 47.3612Z" stroke="#10143E" stroke-width="2" stroke-miterlimit="10"/>
</svg>
