<svg width="1920" height="629" viewBox="0 0 1920 629" fill="none" xmlns="http://www.w3.org/2000/svg">
<path d="M1264.87 318.733L1275.71 304.28C1276.1 303.753 1275.73 303 1275.07 303L1254.27 303C1253.61 303 1253.23 303.753 1253.63 304.28L1264.47 318.733C1264.57 318.867 1264.77 318.867 1264.87 318.733Z" fill="#10143E"/>
<path d="M657 315C657 184.661 762.661 79 893 79H1921V551H893C762.661 551 657 445.339 657 315Z" stroke="#10143E" stroke-width="2"/>
<path d="M-1.49918 12H1026C1158 12 1265 119.004 1265 251V379C1265 510.996 1158 618 1026 618H-1.00082L-1.49918 12Z" stroke="#10143E" stroke-width="2"/>
<path d="M952.267 12.8667L966.72 23.7067C967.247 24.1023 968 23.726 968 23.0667V2.26675C968 1.60751 967.247 1.2312 966.72 1.62675L952.267 12.4667C952.133 12.5667 952.133 12.7667 952.267 12.8667Z" fill="#10143E"/>
<path d="M967.733 616.8L953.28 605.96C952.753 605.564 952 605.941 952 606.6L952 627.4C952 628.059 952.753 628.436 953.28 628.04L967.733 617.2C967.867 617.1 967.867 616.9 967.733 616.8Z" fill="#10143E"/>
</svg>
