<?xml version="1.0" encoding="UTF-8"?>
<svg width="524px" height="133px" viewBox="0 0 524 133" version="1.1" xmlns="http://www.w3.org/2000/svg" xmlns:xlink="http://www.w3.org/1999/xlink">
    <title>Group 67</title>
    <defs>
        <polygon id="path-1" points="0 0 124 0 124 124 0 124"></polygon>
        <polygon id="path-3" points="0 0 65 0 65 124 0 124"></polygon>
    </defs>
    <g id="Page-1" stroke="none" stroke-width="1" fill="none" fill-rule="evenodd">
        <g id="NAKAMOTO_Coming" transform="translate(-703.000000, -289.000000)">
            <g id="Group-67" transform="translate(703.000000, 289.000000)">
                <path d="M165.307907,32 C166.586328,32 167.412938,32.5195797 167.939563,33.7087433 L178.164735,58.4456646 C178.466187,59.1145238 179.067625,58.9652443 179.067625,58.22247 L179.067625,34.228323 C179.067625,32.7427743 179.894235,32 181.323016,32 L189.743876,32 C191.248203,32 192,32.7427743 192,34.228323 L192,81.771677 C192,83.1825859 191.248203,84 189.743876,84 L178.69136,84 C177.412938,84 176.586328,83.4796956 176.060437,82.2912567 L165.833798,57.5543354 C165.533079,56.8854762 164.932375,57.034031 164.932375,57.7768054 L164.932375,81.771677 C164.932375,83.1825859 164.180578,84 162.676251,84 L154.254657,84 C152.82661,84 152,83.1825859 152,81.771677 L152,34.228323 C152,32.7427743 152.82661,32 154.254657,32 L165.307907,32 Z" id="Fill-1" fill="#F2F2F2"></path>
                <path d="M223.363341,49.192014 C223.363341,45.6485517 222.849475,43.8771806 218.000358,43.8771806 C213.151241,43.8771806 212.636659,45.6485517 212.636659,49.192014 L212.636659,57.2380713 C212.636659,58.6407668 213.445084,59.4530053 214.841194,59.4530053 L221.159523,59.4530053 C222.628735,59.3788381 223.363341,58.6407668 223.363341,57.1646242 L223.363341,49.192014 Z M236,80.4898375 C236,82.1143144 235.265394,83 233.796182,83 L225.56716,83 C224.171766,83 223.363341,82.2619287 223.363341,80.7857861 L223.363341,74.3634857 C223.363341,72.886623 222.628735,72.1485517 221.159523,72.1485517 L214.841194,72.1485517 C213.445084,72.1485517 212.636659,72.886623 212.636659,74.3634857 L212.636659,80.7857861 C212.636659,82.2619287 211.902053,83 210.43284,83 L202.203818,83 C200.808425,83 200,82.1143144 200,80.4898375 L200,49.192014 C200,39.8908755 201.469212,30 218.000358,30 C234.530788,30 236,39.8908755 236,49.192014 L236,80.4898375 Z" id="Fill-3" fill="#F2F2F2"></path>
                <path d="M283.498246,81.3252878 C284.556793,82.8115611 283.87593,84 282.062016,84 L270.718971,84 C269.508466,84 268.677119,83.5543354 267.996256,82.5144514 L258.619821,68.4002899 C258.317379,67.9546253 257.863716,67.9546253 257.560536,68.4002899 L254.460138,72.5598261 C254.233676,72.8569358 254.157697,73.1540455 254.157697,73.5250704 L254.157697,81.771677 C254.157697,83.1825859 253.401592,84 251.889383,84 L243.268314,84 C241.832084,84 241,83.1825859 241,81.771677 L241,34.228323 C241,32.7427743 241.832084,32 243.268314,32 L251.889383,32 C253.401592,32 254.157697,32.7427743 254.157697,34.228323 L254.157697,49.1591739 C254.157697,49.9026729 254.687339,50.0512277 255.065022,49.4562836 L266.93771,33.4116335 C267.618573,32.4456646 268.449919,32 269.659686,32 L280.851511,32 C282.742141,32 283.347025,33.1884389 282.288479,34.7479027 L267.012951,55.3999275 C266.786489,55.7709524 266.710509,56.0680621 267.012951,56.4398116 L283.498246,81.3252878 Z" id="Fill-5" fill="#F2F2F2"></path>
                <path d="M314.363341,49.192014 C314.363341,45.6485517 313.849475,43.8771806 309.000358,43.8771806 C304.151241,43.8771806 303.636659,45.6485517 303.636659,49.192014 L303.636659,57.2380713 C303.636659,58.6407668 304.445084,59.4530053 305.841194,59.4530053 L312.159523,59.4530053 C313.628735,59.3788381 314.363341,58.6407668 314.363341,57.1646242 L314.363341,49.192014 Z M327,80.4898375 C327,82.1143144 326.265394,83 324.796182,83 L316.56716,83 C315.171766,83 314.363341,82.2619287 314.363341,80.7857861 L314.363341,74.3634857 C314.363341,72.886623 313.628735,72.1485517 312.159523,72.1485517 L305.841194,72.1485517 C304.445084,72.1485517 303.636659,72.886623 303.636659,74.3634857 L303.636659,80.7857861 C303.636659,82.2619287 302.902053,83 301.43284,83 L293.203818,83 C291.808425,83 291,82.1143144 291,80.4898375 L291,49.192014 C291,39.8908755 292.469212,30 309.000358,30 C325.530788,30 327,39.8908755 327,49.192014 L327,80.4898375 Z" id="Fill-7" fill="#F2F2F2"></path>
                <path d="M352.466344,32 C353.793485,32 354.530385,32.7427743 354.825146,34.005853 L360.058219,55.6223975 C360.205599,56.3651718 360.79512,56.3651718 360.9425,55.6223975 L366.174136,34.005853 C366.468896,32.7427743 367.206515,32 368.532937,32 L383.789298,32 C385.263099,32 386,32.7427743 386,34.228323 L386,81.771677 C386,83.1825859 385.263099,84 383.789298,84 L375.534572,84 C374.134101,84 373.323151,83.1825859 373.323151,81.771677 L373.323151,52.50347 C373.323151,51.9831656 372.6603,51.9085259 372.51292,52.4288302 L365.363904,82.0687868 C365.069144,83.3311408 364.258194,84 362.932491,84 L358.068228,84 C356.741087,84 355.930856,83.3311408 355.636096,82.0687868 L348.48708,52.4288302 C348.3397,51.9085259 347.67613,51.9831656 347.67613,52.50347 L347.67613,81.771677 C347.67613,83.1825859 346.939229,84 345.465428,84 L337.211421,84 C335.736901,84 335,83.1825859 335,81.771677 L335,34.228323 C335,32.7427743 335.736901,32 337.211421,32 L352.466344,32 Z" id="Fill-9" fill="#F2F2F2"></path>
                <path d="M453.034637,47.0054907 C453.034637,45.519942 452.282978,44.7771677 450.779661,44.7771677 L440.255709,44.7771677 C438.827191,44.7771677 438,43.9597536 438,42.5488447 L438,34.2290476 C438,32.7427743 438.827191,32 440.255709,32 L478.745024,32 C480.248341,32 481,32.7427743 481,34.2290476 L481,42.5488447 C481,43.9597536 480.248341,44.7771677 478.745024,44.7771677 L468.219605,44.7771677 C466.791821,44.7771677 465.96463,45.519942 465.96463,47.0054907 L465.96463,81.7724017 C465.96463,83.1825859 465.212971,84 463.710388,84 L455.290346,84 C453.861828,84 453.034637,83.1825859 453.034637,81.7724017 L453.034637,47.0054907 Z" id="Fill-11" fill="#F2F2F2"></path>
                <path d="M510.323222,53.1198425 C510.323222,47.3653594 509.954372,43.8531856 504.5,43.8531856 C499.045628,43.8531856 498.676778,47.3653594 498.676778,53.1198425 L498.676778,63.8808864 C498.676778,69.6346406 499.045628,73.1468144 504.5,73.1468144 C509.954372,73.1468144 510.323222,69.6346406 510.323222,63.8808864 L510.323222,53.1198425 Z M523,67.8406473 C523,72.7728532 521.968228,86 504.5,86 C487.031772,86 486,72.7728532 486,67.8406473 L486,49.1586237 C486,44.2264178 487.031772,31 504.5,31 C521.968228,31 523,44.2264178 523,49.1586237 L523,67.8406473 Z" id="Fill-13" fill="#F2F2F2"></path>
                <path d="M418.323222,53.1198425 C418.323222,47.3653594 417.954372,43.8531856 412.5,43.8531856 C407.045628,43.8531856 406.676778,47.3653594 406.676778,53.1198425 L406.676778,63.8808864 C406.676778,69.6346406 407.045628,73.1468144 412.5,73.1468144 C417.954372,73.1468144 418.323222,69.6346406 418.323222,63.8808864 L418.323222,53.1198425 Z M431,67.8406473 C431,72.7728532 429.968947,86 412.5,86 C395.031772,86 394,72.7728532 394,67.8406473 L394,49.1586237 C394,44.2264178 395.031772,31 412.5,31 C429.968947,31 431,44.2264178 431,49.1586237 L431,67.8406473 Z" id="Fill-15" fill="#F2F2F2"></path>
                <path d="M500.744092,133 L396.265243,133 C395.014549,133 394,131.989626 394,130.743352 L394,94.2566477 C394,93.0103743 395.014549,92 396.265243,92 L521.734029,92 C522.985451,92 524,93.0103743 524,94.2566477 L524,109.839783 C524,122.630599 513.587755,133 500.744092,133" id="Fill-17" fill="#C10606"></path>
                <path d="M416,108.263503 C416,106.291041 416.418141,101 423.500354,101 C429.775294,101 430.820999,105.12469 430.970284,107.456683 C431,107.994563 430.731852,108.322953 430.193434,108.442561 L426.817178,109.190639 C426.219329,109.310246 425.891043,109.040598 425.830904,108.413544 C425.711334,106.978253 425.203339,106.141 423.500354,106.141 C421.288666,106.141 421.13938,107.545858 421.13938,109.847418 L421.13938,114.152582 C421.13938,116.454142 421.288666,117.858292 423.500354,117.858292 C425.711334,117.858292 425.86062,116.454142 425.86062,114.988419 L424.127918,114.988419 C423.559785,114.988419 423.231499,114.659321 423.231499,114.091716 L423.231499,111.700981 C423.231499,111.102944 423.559785,110.804279 424.127918,110.804279 L430.104288,110.804279 C430.701429,110.804279 431,111.102944 431,111.700981 L431,115.736497 C431,117.708959 430.582567,123 423.500354,123 C416.418141,123 416,117.708959 416,115.736497 L416,108.263503 Z" id="Fill-19" fill="#FFFFFF"></path>
                <path d="M444.734706,108.966693 C444.734706,107.495383 444.520876,106.760454 442.5,106.760454 C440.479849,106.760454 440.265294,107.495383 440.265294,108.966693 L440.265294,112.306886 C440.265294,112.888735 440.602349,113.226092 441.183676,113.226092 L443.816324,113.226092 C444.42882,113.194895 444.734706,112.888735 444.734706,112.275689 L444.734706,108.966693 Z M450,121.958185 C450,122.632898 449.694114,123 449.081618,123 L445.653813,123 C445.07176,123 444.734706,122.69384 444.734706,122.080794 L444.734706,119.415315 C444.734706,118.802269 444.42882,118.496109 443.816324,118.496109 L441.183676,118.496109 C440.602349,118.496109 440.265294,118.802269 440.265294,119.415315 L440.265294,122.080794 C440.265294,122.69384 439.959409,123 439.346912,123 L435.918382,123 C435.337054,123 435,122.632898 435,121.958185 L435,108.966693 C435,105.105593 435.611772,101 442.5,101 C449.388228,101 450,105.105593 450,108.966693 L450,121.958185 Z" id="Fill-21" fill="#FFFFFF"></path>
                <path d="M459.192568,101 C459.738657,101 460.041881,101.299767 460.163313,101.809796 L462.31821,110.539965 C462.378567,110.839732 462.621433,110.839732 462.68179,110.539965 L464.836687,101.809796 C464.958119,101.299767 465.262061,101 465.80815,101 L472.089612,101 C472.696777,101 473,101.299767 473,101.90001 L473,121.1007 C473,121.670399 472.696777,122 472.089612,122 L468.690926,122 C468.11394,122 467.780538,121.670399 467.780538,121.1007 L467.780538,109.279809 C467.780538,109.070257 467.507493,109.039712 467.446418,109.249975 L464.503285,121.220749 C464.381852,121.730778 464.047731,122 463.501642,122 L461.498358,122 C460.952269,122 460.618867,121.730778 460.497434,121.220749 L457.553582,109.249975 C457.493225,109.039712 457.219462,109.070257 457.219462,109.279809 L457.219462,121.1007 C457.219462,121.670399 456.916239,122 456.309074,122 L452.911107,122 C452.303223,122 452,121.670399 452,121.1007 L452,101.90001 C452,101.299767 452.303223,101 452.911107,101 L459.192568,101 Z" id="Fill-23" fill="#FFFFFF"></path>
                <path d="M490.0625,101 C490.687747,101 491,101.299767 491,101.90001 L491,105.259953 C491,105.829652 490.687747,106.159963 490.0625,106.159963 L482.500345,106.159963 C481.906176,106.159963 481.562845,106.46044 481.562845,107.059974 L481.562845,108.019653 C481.562845,108.590062 481.906176,108.919663 482.500345,108.919663 L487.343972,108.919663 C487.968479,108.919663 488.281472,109.21943 488.281472,109.820384 L488.281472,113.179616 C488.281472,113.750736 487.968479,114.079627 487.343972,114.079627 L482.500345,114.079627 C481.906176,114.079627 481.562845,114.380104 481.562845,114.979637 L481.562845,115.940026 C481.562845,116.509725 481.906176,116.840037 482.500345,116.840037 L490.0625,116.840037 C490.687747,116.840037 491,117.139803 491,117.740047 L491,121.1007 C491,121.700233 490.687747,122 490.0625,122 L476.9375,122 C476.344071,122 476,121.670399 476,121.1007 L476,101.90001 C476,101.299767 476.344071,101 476.9375,101 L490.0625,101 Z" id="Fill-25" fill="#FFFFFF"></path>
                <path d="M503.1666,108.944741 C502.526139,109.06517 502.206287,108.794383 502.110786,108.192952 C501.886435,106.958734 500.829863,106.17559 499.325347,106.17559 C498.077016,106.17559 497.308462,106.868947 497.436555,107.560878 C497.884499,109.908172 508,109.847601 508,116.769766 C508,117.672627 506.912352,123 499.325347,123 C492.603155,123 491.163064,118.846986 491.00238,116.49898 C490.970547,115.957406 491.258565,115.626049 491.834601,115.50562 L495.452261,114.75383 C496.091964,114.632689 496.444408,114.903476 496.508833,115.535549 C496.636167,116.980695 497.820831,117.823697 499.325347,117.823697 C500.893531,117.823697 502.046361,116.950053 501.853844,116.137693 C501.245974,113.579471 491.61025,114.151686 491.61025,107.229521 C491.578416,106.326661 492.154453,101 499.325347,101 C505.919448,101 507.456555,105.032585 507.648315,107.198879 C507.680148,107.741165 507.39213,108.072523 506.815336,108.192952 L503.1666,108.944741 Z" id="Fill-27" fill="#FFFFFF"></path>
                <path d="M411,121 C411,122.656737 409.656581,124 407.999651,124 C406.343419,124 405,122.656737 405,121 C405,119.343263 406.343419,118 407.999651,118 C409.656581,118 411,119.343263 411,121" id="Fill-29" fill="#FFFFFF"></path>
                <g id="Group-33" transform="translate(0.000000, 1.000000)">
                    <mask id="mask-2" fill="white">
                        <use xlink:href="#path-1"></use>
                    </mask>
                    <g id="Clip-32"></g>
                    <path d="M124,62 C124,96.2418182 96.2419154,124 62.000217,124 C27.7585186,124 -0.000289350164,96.2418182 -0.000289350164,62 C-0.000289350164,27.7581818 27.7585186,0 62.000217,0 C96.2419154,0 124,27.7581818 124,62" id="Fill-31" fill="#C10606" mask="url(#mask-2)"></path>
                </g>
                <g id="Group-36" transform="translate(60.000000, 0.000000)">
                    <mask id="mask-4" fill="white">
                        <use xlink:href="#path-3"></use>
                    </mask>
                    <g id="Clip-35"></g>
                    <path d="M60.8241864,61.9999638 C60.8241864,95.5531458 33.7786548,122.876593 0,123.962384 C0.693644556,123.984809 1.38875714,124 2.08753981,124 C36.8328929,124 65,96.2418021 65,61.9999638 C65,27.7581256 36.8328929,-7.23378366e-05 2.08753981,-7.23378366e-05 C1.38875714,-7.23378366e-05 0.693644556,0.0151186078 0,0.0375433371 C33.7786548,1.12333426 60.8241864,28.4467818 60.8241864,61.9999638" id="Fill-34" fill="#7F0404" mask="url(#mask-4)"></path>
                </g>
                <path d="M87.1824503,65.741309 C85.4673071,73.6294134 78.0117141,72.3386462 78.0117141,72.3386462 C69.9625578,71.3348804 70.6886715,61.5102552 70.6886715,61.5102552 L87.3142724,61.5102552 L87.1824503,65.741309 Z M48.9882859,72.3386462 C48.9882859,72.3386462 41.5326929,73.6294134 39.8175497,65.741309 L39.6857276,61.5102552 L56.3113285,61.5102552 C56.3113285,61.5102552 57.0374422,71.3348804 48.9882859,72.3386462 L48.9882859,72.3386462 Z M39.3558084,47.8133281 C39.3558084,47.8133281 35.7266964,47.9560891 35.7266964,44.6577904 L35.7266964,41 L27.0184298,41 L27.0184298,52.9046468 L16,52.9046468 L16,61.1515032 L26.8858794,61.1515032 L26.8858794,65.1673059 L16.131822,65.1673059 L16.131822,73.5584028 L28.2055565,73.4866524 C28.2055565,73.4866524 31.5047493,88.9765995 47.2068675,88.9765995 C47.2068675,88.9765995 58.5093337,89.9485583 63.4996359,79.3642666 C68.4906663,89.9485583 79.7931325,88.9765995 79.7931325,88.9765995 C95.4952507,88.9765995 98.7944435,73.4866524 98.7944435,73.4866524 L110.868178,73.5584028 L110.868178,65.1673059 L100.114121,65.1673059 L100.114121,61.1515032 L111,61.1515032 L111,52.9046468 L99.9815702,52.9046468 L99.9815702,41 L91.2733036,41 L91.2733036,44.6577904 C91.2733036,47.9560891 87.6441916,47.8133281 87.6441916,47.8133281 L39.3558084,47.8133281 Z" id="Fill-37" fill="#7F0404"></path>
                <polygon id="Fill-39" fill="#7F0404" points="100 40.8557815 97.4499902 37 96 42"></polygon>
                <polygon id="Fill-41" fill="#7F0404" points="111 52.8557815 108.44999 49 107 54"></polygon>
                <polygon id="Fill-43" fill="#7F0404" points="111 64.8557815 108.44999 61 107 66"></polygon>
                <polygon id="Fill-45" fill="#7F0404" points="13 56.5882205 15.3878299 60 18 57.5994211 15.7888563 55"></polygon>
                <polygon id="Fill-47" fill="#7F0404" points="13 69.5882205 15.3878299 73 18 70.5994211 15.7888563 68"></polygon>
                <path d="M85.1824503,62.741309 C83.4673071,70.6294134 76.0117141,69.3386462 76.0117141,69.3386462 C67.9625578,68.3348804 68.6886715,58.5102552 68.6886715,58.5102552 L85.3142724,58.5102552 L85.1824503,62.741309 Z M46.9882859,69.3386462 C46.9882859,69.3386462 39.5326929,70.6294134 37.8175497,62.741309 L37.6857276,58.5102552 L54.3113285,58.5102552 C54.3113285,58.5102552 55.0374422,68.3348804 46.9882859,69.3386462 L46.9882859,69.3386462 Z M37.3558084,44.8133281 C37.3558084,44.8133281 33.7266964,44.9560891 33.7266964,41.6577904 L33.7266964,38 L25.0184298,38 L25.0184298,49.9046468 L14,49.9046468 L14,58.1515032 L24.8858794,58.1515032 L24.8858794,62.1673059 L14.131822,62.1673059 L14.131822,70.5584028 L26.2055565,70.4866524 C26.2055565,70.4866524 29.5047493,85.9765995 45.2068675,85.9765995 C45.2068675,85.9765995 56.5093337,86.9485583 61.4996359,76.3642666 C66.4906663,86.9485583 77.7931325,85.9765995 77.7931325,85.9765995 C93.4952507,85.9765995 96.7944435,70.4866524 96.7944435,70.4866524 L108.868178,70.5584028 L108.868178,62.1673059 L98.1141206,62.1673059 L98.1141206,58.1515032 L109,58.1515032 L109,49.9046468 L97.9815702,49.9046468 L97.9815702,38 L89.2733036,38 L89.2733036,41.6577904 C89.2733036,44.9560891 85.6441916,44.8133281 85.6441916,44.8133281 L37.3558084,44.8133281 Z" id="Fill-49" fill="#CCCCCC"></path>
                <polygon id="Fill-51" fill="#CCCCCC" points="109 50.3461883 107.991354 49 107 51"></polygon>
                <polygon id="Fill-53" fill="#CCCCCC" points="98 38.3461883 96.9913545 37 96 39"></polygon>
                <polygon id="Fill-55" fill="#CCCCCC" points="109 61.3461883 107.991354 60 107 62"></polygon>
                <polygon id="Fill-57" fill="#CCCCCC" points="12 56.3604588 13.033668 58 14 56"></polygon>
                <polygon id="Fill-59" fill="#CCCCCC" points="13 69.3604588 14.033668 71 15 69"></polygon>
                <polygon id="Fill-61" fill="#CCCCCC" points="34 38.1093865 33.2159498 37 33 39"></polygon>
                <path d="M84.1824503,60.741309 C82.4673071,68.6294134 75.0117141,67.3386462 75.0117141,67.3386462 C66.9625578,66.3348804 67.6886715,56.5102552 67.6886715,56.5102552 L84.3142724,56.5102552 L84.1824503,60.741309 Z M45.9882859,67.3386462 C45.9882859,67.3386462 38.5326929,68.6294134 36.8175497,60.741309 L36.6857276,56.5102552 L53.3113285,56.5102552 C53.3113285,56.5102552 54.0374422,66.3348804 45.9882859,67.3386462 L45.9882859,67.3386462 Z M36.3558084,42.8133281 C36.3558084,42.8133281 32.7266964,42.9560891 32.7266964,39.6577904 L32.7266964,36 L24.0184298,36 L24.0184298,47.9046468 L13,47.9046468 L13,56.1515032 L23.8858794,56.1515032 L23.8858794,60.1673059 L13.131822,60.1673059 L13.131822,68.5584028 L25.2055565,68.4866524 C25.2055565,68.4866524 28.5047493,83.9765995 44.2068675,83.9765995 C44.2068675,83.9765995 55.5093337,84.9485583 60.4996359,74.3642666 C65.4906663,84.9485583 76.7931325,83.9765995 76.7931325,83.9765995 C92.4952507,83.9765995 95.7944435,68.4866524 95.7944435,68.4866524 L107.868178,68.5584028 L107.868178,60.1673059 L97.1141206,60.1673059 L97.1141206,56.1515032 L108,56.1515032 L108,47.9046468 L96.9815702,47.9046468 L96.9815702,36 L88.2733036,36 L88.2733036,39.6577904 C88.2733036,42.9560891 84.6441916,42.8133281 84.6441916,42.8133281 L36.3558084,42.8133281 Z" id="Fill-63" fill="#F2F2F2"></path>
                <polygon id="Fill-65" fill="#7F0404" points="36 41.1724975 34 38 34 42"></polygon>
            </g>
        </g>
    </g>
</svg>